<svg width="97" height="13" viewBox="0 0 97 13" fill="none" xmlns="http://www.w3.org/2000/svg">
<path d="M8.48726 4.57457C8.39848 4.28693 8.27597 4.02947 8.11972 3.8022C7.96702 3.57138 7.78236 3.37429 7.56574 3.21094C7.35267 3.04759 7.10764 2.92507 6.83066 2.84339C6.55367 2.75817 6.25182 2.71555 5.92512 2.71555C5.33918 2.71555 4.81716 2.86293 4.35906 3.15767C3.90097 3.45241 3.54053 3.88565 3.27774 4.45739C3.01851 5.02557 2.88889 5.71804 2.88889 6.5348C2.88889 7.35866 3.01851 8.05646 3.27774 8.6282C3.53698 9.19993 3.89742 9.63494 4.35906 9.93324C4.82071 10.228 5.35693 10.3754 5.96773 10.3754C6.52171 10.3754 7.00111 10.2688 7.40594 10.0558C7.81432 9.84268 8.1286 9.54084 8.34877 9.15021C8.56894 8.75604 8.67902 8.29439 8.67902 7.76527L9.12646 7.83452H6.16482V6.28977H10.5913V7.60014C10.5913 8.53409 10.3924 9.34197 9.99472 10.0238C9.59699 10.7056 9.05012 11.2312 8.35409 11.6005C7.65807 11.9663 6.85906 12.1491 5.95708 12.1491C4.9521 12.1491 4.06965 11.9237 3.3097 11.4727C2.55331 11.0181 1.96205 10.3736 1.53591 9.53906C1.11333 8.70099 0.902033 7.70668 0.902033 6.55611C0.902033 5.67543 1.02632 4.88885 1.2749 4.19638C1.52703 3.50391 1.8786 2.91619 2.32959 2.43324C2.78058 1.94673 3.3097 1.57741 3.91695 1.32528C4.52419 1.0696 5.1847 0.941761 5.89848 0.941761C6.50218 0.941761 7.06503 1.03054 7.58705 1.2081C8.10906 1.3821 8.57249 1.63068 8.97732 1.95384C9.3857 2.27699 9.72128 2.66051 9.98406 3.1044C10.2468 3.5483 10.4191 4.03835 10.5008 4.57457H8.48726ZM15.2892 12.1598C14.4689 12.1598 13.7604 11.9893 13.1638 11.6484C12.5708 11.304 12.1145 10.8175 11.7949 10.1889C11.4753 9.55682 11.3155 8.81286 11.3155 7.95703C11.3155 7.11541 11.4753 6.37678 11.7949 5.74112C12.118 5.10192 12.569 4.60476 13.1479 4.24964C13.7267 3.89098 14.4067 3.71165 15.188 3.71165C15.6922 3.71165 16.1681 3.79332 16.6155 3.95668C17.0665 4.11648 17.4643 4.36506 17.8087 4.70241C18.1567 5.03977 18.4302 5.46946 18.629 5.99148C18.8279 6.50994 18.9273 7.12784 18.9273 7.84517V8.43643H12.221V7.13672H17.079C17.0754 6.7674 16.9955 6.43892 16.8393 6.15128C16.683 5.86009 16.4646 5.63104 16.1841 5.46413C15.9071 5.29723 15.5839 5.21378 15.2146 5.21378C14.8204 5.21378 14.4742 5.30966 14.1759 5.50142C13.8776 5.68963 13.645 5.93821 13.4781 6.24716C13.3148 6.55256 13.2313 6.88814 13.2278 7.25391V8.38849C13.2278 8.86435 13.3148 9.27273 13.4888 9.61364C13.6628 9.95099 13.906 10.2102 14.2185 10.3913C14.531 10.5689 14.8968 10.6577 15.3158 10.6577C15.5964 10.6577 15.8503 10.6186 16.0775 10.5405C16.3048 10.4588 16.5019 10.3398 16.6688 10.1836C16.8357 10.0273 16.9618 9.83381 17.047 9.60298L18.8474 9.8054C18.7338 10.2812 18.5172 10.6967 18.1976 11.0518C17.8815 11.4034 17.4767 11.6768 16.9831 11.8722C16.4895 12.0639 15.9248 12.1598 15.2892 12.1598ZM23.8942 3.81818V5.30966H19.1907V3.81818H23.8942ZM20.352 1.85795H22.2802V9.53906C22.2802 9.7983 22.3193 9.99716 22.3974 10.1357C22.4791 10.2706 22.5856 10.3629 22.717 10.4126C22.8484 10.4624 22.994 10.4872 23.1538 10.4872C23.2745 10.4872 23.3846 10.4783 23.4841 10.4606C23.587 10.4428 23.6652 10.4268 23.7184 10.4126L24.0434 11.9201C23.9404 11.9556 23.793 11.9947 23.6013 12.0373C23.413 12.0799 23.1822 12.1048 22.9088 12.1119C22.4258 12.1261 21.9908 12.0533 21.6037 11.8935C21.2167 11.7301 20.9095 11.478 20.6822 11.1371C20.4585 10.7962 20.3484 10.37 20.352 9.85866V1.85795ZM33.7414 4.08984C33.6917 3.62464 33.4822 3.26243 33.1129 3.0032C32.7471 2.74396 32.2713 2.61435 31.6853 2.61435C31.2734 2.61435 30.9201 2.67649 30.6253 2.80078C30.3306 2.92507 30.1051 3.09375 29.9488 3.30682C29.7926 3.51989 29.7127 3.76314 29.7091 4.03658C29.7091 4.26385 29.7606 4.46094 29.8636 4.62784C29.9701 4.79474 30.1139 4.93679 30.2951 5.05398C30.4762 5.16761 30.6768 5.26349 30.897 5.34162C31.1171 5.41974 31.3391 5.48544 31.5628 5.53871L32.5855 5.79439C32.9975 5.89027 33.3934 6.01989 33.7734 6.18324C34.1569 6.34659 34.4996 6.55256 34.8014 6.80114C35.1068 7.04972 35.3483 7.34979 35.5259 7.70135C35.7034 8.05291 35.7922 8.46484 35.7922 8.93714C35.7922 9.57635 35.6289 10.1392 35.3022 10.6257C34.9755 11.1087 34.5032 11.4869 33.8853 11.7603C33.2709 12.0302 32.5269 12.1651 31.6534 12.1651C30.8046 12.1651 30.0678 12.0337 29.4428 11.771C28.8213 11.5082 28.3348 11.1246 27.9833 10.6204C27.6353 10.1161 27.447 9.50178 27.4186 8.77734H29.3629C29.3913 9.15732 29.5085 9.47337 29.7144 9.7255C29.9204 9.97763 30.1885 10.1658 30.5188 10.2901C30.8526 10.4144 31.2255 10.4766 31.6374 10.4766C32.0671 10.4766 32.4435 10.4126 32.7666 10.2848C33.0934 10.1534 33.349 9.9723 33.5337 9.74148C33.7184 9.5071 33.8125 9.23366 33.816 8.92116C33.8125 8.63707 33.729 8.4027 33.5657 8.21804C33.4023 8.02983 33.1733 7.87358 32.8785 7.74929C32.5873 7.62145 32.2464 7.50781 31.8558 7.40838L30.6147 7.08878C29.7162 6.85795 29.006 6.50817 28.484 6.03942C27.9655 5.56712 27.7063 4.94034 27.7063 4.15909C27.7063 3.51633 27.8803 2.95348 28.2283 2.47053C28.5799 1.98757 29.0575 1.61293 29.6612 1.34659C30.2649 1.0767 30.9485 0.941761 31.712 0.941761C32.4861 0.941761 33.1644 1.0767 33.7468 1.34659C34.3327 1.61293 34.7926 1.98402 35.1264 2.45987C35.4602 2.93217 35.6324 3.4755 35.6431 4.08984H33.7414ZM36.804 1.09091H39.2223L42.461 8.99574H42.5888L45.8275 1.09091H48.2458V12H46.3495V4.50533H46.2483L43.2334 11.968H41.8165L38.8015 4.48935H38.7003V12H36.804V1.09091ZM55.5764 4.08984C55.5267 3.62464 55.3172 3.26243 54.9478 3.0032C54.5821 2.74396 54.1062 2.61435 53.5203 2.61435C53.1084 2.61435 52.755 2.67649 52.4603 2.80078C52.1655 2.92507 51.94 3.09375 51.7838 3.30682C51.6275 3.51989 51.5476 3.76314 51.5441 4.03658C51.5441 4.26385 51.5956 4.46094 51.6986 4.62784C51.8051 4.79474 51.9489 4.93679 52.13 5.05398C52.3111 5.16761 52.5118 5.26349 52.7319 5.34162C52.9521 5.41974 53.1741 5.48544 53.3978 5.53871L54.4205 5.79439C54.8324 5.89027 55.2284 6.01989 55.6084 6.18324C55.9919 6.34659 56.3346 6.55256 56.6364 6.80114C56.9418 7.04972 57.1833 7.34979 57.3608 7.70135C57.5384 8.05291 57.6272 8.46484 57.6272 8.93714C57.6272 9.57635 57.4638 10.1392 57.1371 10.6257C56.8104 11.1087 56.3381 11.4869 55.7202 11.7603C55.1059 12.0302 54.3619 12.1651 53.4883 12.1651C52.6396 12.1651 51.9027 12.0337 51.2777 11.771C50.6563 11.5082 50.1698 11.1246 49.8182 10.6204C49.4702 10.1161 49.282 9.50178 49.2536 8.77734H51.1978C51.2263 9.15732 51.3434 9.47337 51.5494 9.7255C51.7554 9.97763 52.0235 10.1658 52.3537 10.2901C52.6875 10.4144 53.0604 10.4766 53.4723 10.4766C53.902 10.4766 54.2785 10.4126 54.6016 10.2848C54.9283 10.1534 55.184 9.9723 55.3687 9.74148C55.5533 9.5071 55.6474 9.23366 55.651 8.92116C55.6474 8.63707 55.564 8.4027 55.4006 8.21804C55.2373 8.02983 55.0082 7.87358 54.7135 7.74929C54.4223 7.62145 54.0814 7.50781 53.6907 7.40838L52.4496 7.08878C51.5512 6.85795 50.841 6.50817 50.3189 6.03942C49.8005 5.56712 49.5412 4.94034 49.5412 4.15909C49.5412 3.51633 49.7152 2.95348 50.0633 2.47053C50.4148 1.98757 50.8924 1.61293 51.4961 1.34659C52.0998 1.0767 52.7834 0.941761 53.5469 0.941761C54.3211 0.941761 54.9993 1.0767 55.5817 1.34659C56.1677 1.61293 56.6275 1.98402 56.9613 2.45987C57.2951 2.93217 57.4674 3.4755 57.478 4.08984H55.5764ZM70.9474 4.77166H68.9552C68.8984 4.44496 68.7936 4.15554 68.6409 3.90341C68.4882 3.64773 68.2983 3.43111 68.071 3.25355C67.8437 3.07599 67.5845 2.94283 67.2933 2.85405C67.0056 2.76172 66.6949 2.71555 66.3611 2.71555C65.7681 2.71555 65.2425 2.8647 64.7844 3.163C64.3263 3.45774 63.9676 3.89098 63.7084 4.46271C63.4492 5.03089 63.3196 5.72514 63.3196 6.54545C63.3196 7.37997 63.4492 8.0831 63.7084 8.65483C63.9712 9.22301 64.3299 9.6527 64.7844 9.94389C65.2425 10.2315 65.7663 10.3754 66.3558 10.3754C66.6825 10.3754 66.9879 10.3327 67.272 10.2475C67.5596 10.1587 67.8171 10.0291 68.0443 9.85866C68.2752 9.68821 68.4687 9.47869 68.625 9.23011C68.7848 8.98153 68.8948 8.69744 68.9552 8.37784L70.9474 8.38849C70.8728 8.90696 70.7112 9.39347 70.4627 9.84801C70.2176 10.3026 69.8963 10.7038 69.4985 11.0518C69.1008 11.3963 68.6356 11.6662 68.1029 11.8615C67.5703 12.0533 66.979 12.1491 66.3291 12.1491C65.3703 12.1491 64.5145 11.9272 63.7617 11.4833C63.0088 11.0394 62.4158 10.3984 61.9826 9.56037C61.5493 8.7223 61.3327 7.71733 61.3327 6.54545C61.3327 5.37003 61.5511 4.36506 61.9879 3.53054C62.4247 2.69247 63.0195 2.05149 63.7723 1.6076C64.5252 1.16371 65.3774 0.941761 66.3291 0.941761C66.9364 0.941761 67.501 1.02699 68.023 1.19744C68.5451 1.3679 69.0103 1.61825 69.4186 1.94851C69.827 2.27521 70.1626 2.67649 70.4254 3.15234C70.6917 3.62464 70.8657 4.16442 70.9474 4.77166ZM75.4908 12.1598C74.6918 12.1598 73.9993 11.984 73.4134 11.6325C72.8275 11.2809 72.3729 10.7891 72.0498 10.157C71.7302 9.52486 71.5704 8.78622 71.5704 7.94105C71.5704 7.09588 71.7302 6.35547 72.0498 5.71982C72.3729 5.08416 72.8275 4.59055 73.4134 4.23899C73.9993 3.88743 74.6918 3.71165 75.4908 3.71165C76.2898 3.71165 76.9823 3.88743 77.5682 4.23899C78.1542 4.59055 78.6069 5.08416 78.9265 5.71982C79.2497 6.35547 79.4113 7.09588 79.4113 7.94105C79.4113 8.78622 79.2497 9.52486 78.9265 10.157C78.6069 10.7891 78.1542 11.2809 77.5682 11.6325C76.9823 11.984 76.2898 12.1598 75.4908 12.1598ZM75.5015 10.6151C75.9347 10.6151 76.2969 10.4961 76.5881 10.2582C76.8793 10.0167 77.0959 9.69354 77.238 9.28871C77.3836 8.88388 77.4564 8.43288 77.4564 7.93572C77.4564 7.43501 77.3836 6.98224 77.238 6.57741C77.0959 6.16903 76.8793 5.84411 76.5881 5.60263C76.2969 5.36115 75.9347 5.24041 75.5015 5.24041C75.0576 5.24041 74.6883 5.36115 74.3935 5.60263C74.1023 5.84411 73.8839 6.16903 73.7383 6.57741C73.5963 6.98224 73.5253 7.43501 73.5253 7.93572C73.5253 8.43288 73.5963 8.88388 73.7383 9.28871C73.8839 9.69354 74.1023 10.0167 74.3935 10.2582C74.6883 10.4961 75.0576 10.6151 75.5015 10.6151ZM83.3341 12.1438C82.6914 12.1438 82.1161 11.9787 81.6083 11.6484C81.1005 11.3182 80.6992 10.8388 80.4044 10.2102C80.1097 9.58168 79.9623 8.81818 79.9623 7.91974C79.9623 7.01065 80.1115 6.24361 80.4098 5.61861C80.7116 4.99006 81.1182 4.51598 81.6296 4.19638C82.1409 3.87322 82.7109 3.71165 83.3394 3.71165C83.8188 3.71165 84.213 3.79332 84.522 3.95668C84.8309 4.11648 85.076 4.31001 85.2571 4.53729C85.4382 4.76101 85.5784 4.9723 85.6779 5.17116H85.7578V1.09091H87.6914V12H85.7951V10.7109H85.6779C85.5784 10.9098 85.4346 11.1211 85.2464 11.3448C85.0582 11.565 84.8096 11.7532 84.5007 11.9094C84.1917 12.0657 83.8029 12.1438 83.3341 12.1438ZM83.8721 10.5618C84.2805 10.5618 84.6285 10.4517 84.9161 10.2315C85.2038 10.0078 85.4222 9.69709 85.5713 9.29936C85.7205 8.90163 85.7951 8.43821 85.7951 7.90909C85.7951 7.37997 85.7205 6.9201 85.5713 6.52947C85.4257 6.13885 85.2091 5.83523 84.9215 5.61861C84.6374 5.40199 84.2876 5.29368 83.8721 5.29368C83.4424 5.29368 83.0838 5.40554 82.7961 5.62926C82.5085 5.85298 82.2919 6.16193 82.1463 6.55611C82.0007 6.95028 81.9279 7.40128 81.9279 7.90909C81.9279 8.42045 82.0007 8.87678 82.1463 9.27805C82.2954 9.67578 82.5138 9.99006 82.8014 10.2209C83.0926 10.4482 83.4495 10.5618 83.8721 10.5618ZM92.6183 12.1598C91.798 12.1598 91.0895 11.9893 90.4929 11.6484C89.8999 11.304 89.4436 10.8175 89.124 10.1889C88.8044 9.55682 88.6446 8.81286 88.6446 7.95703C88.6446 7.11541 88.8044 6.37678 89.124 5.74112C89.4471 5.10192 89.8981 4.60476 90.477 4.24964C91.0558 3.89098 91.7358 3.71165 92.5171 3.71165C93.0214 3.71165 93.4972 3.79332 93.9446 3.95668C94.3956 4.11648 94.7934 4.36506 95.1378 4.70241C95.4858 5.03977 95.7593 5.46946 95.9581 5.99148C96.157 6.50994 96.2564 7.12784 96.2564 7.84517V8.43643H89.5501V7.13672H94.4081C94.4045 6.7674 94.3246 6.43892 94.1684 6.15128C94.0121 5.86009 93.7937 5.63104 93.5132 5.46413C93.2362 5.29723 92.913 5.21378 92.5437 5.21378C92.1495 5.21378 91.8033 5.30966 91.505 5.50142C91.2067 5.68963 90.9741 5.93821 90.8072 6.24716C90.6439 6.55256 90.5604 6.88814 90.5569 7.25391V8.38849C90.5569 8.86435 90.6439 9.27273 90.8179 9.61364C90.9919 9.95099 91.2351 10.2102 91.5476 10.3913C91.8601 10.5689 92.2259 10.6577 92.6449 10.6577C92.9255 10.6577 93.1794 10.6186 93.4066 10.5405C93.6339 10.4588 93.831 10.3398 93.9979 10.1836C94.1648 10.0273 94.2909 9.83381 94.3761 9.60298L96.1765 9.8054C96.0629 10.2812 95.8463 10.6967 95.5267 11.0518C95.2106 11.4034 94.8058 11.6768 94.3122 11.8722C93.8186 12.0639 93.254 12.1598 92.6183 12.1598Z" fill="#1137BC"/>
</svg>
