<svg width="88" height="80" viewBox="0 0 88 80" fill="none" xmlns="http://www.w3.org/2000/svg">
<path d="M44 0C19.6935 0 0 17.9032 0 40C0 62.0968 19.6935 80 44 80C68.3064 80 88 62.0968 88 40C88 17.9032 68.3064 0 44 0ZM44 15.4839C52.6226 15.4839 59.6129 21.8387 59.6129 29.6774C59.6129 37.5161 52.6226 43.871 44 43.871C35.3774 43.871 28.3871 37.5161 28.3871 29.6774C28.3871 21.8387 35.3774 15.4839 44 15.4839ZM44 70.9677C33.5855 70.9677 24.2532 66.6774 18.0081 59.9677C21.3435 54.2581 27.8726 50.3226 35.4839 50.3226C35.9097 50.3226 36.3355 50.3871 36.7435 50.5C39.05 51.1774 41.4629 51.6129 44 51.6129C46.5371 51.6129 48.9677 51.1774 51.2565 50.5C51.6645 50.3871 52.0903 50.3226 52.5161 50.3226C60.1274 50.3226 66.6564 54.2581 69.9919 59.9677C63.7468 66.6774 54.4145 70.9677 44 70.9677Z" fill="black"/>
</svg>
